FILE "Sensible Soccer (1994)(Sensible Software - Sony)(EU)(M4).img" BINARY
  TRACK 01 MODE1/2352
    INDEX 01 00:00:00
  TRACK 02 AUDIO
    PREGAP 00:02:00
    FLAGS PRE
    INDEX 01 02:33:25
  TRACK 03 AUDIO
    FLAGS PRE
    INDEX 00 02:37:26
    INDEX 01 02:39:25
  TRACK 04 AUDIO
    FLAGS PRE
    INDEX 00 02:46:65
    INDEX 01 02:48:65
  TRACK 05 AUDIO
    FLAGS PRE
    INDEX 00 02:57:08
    INDEX 01 02:59:00
  TRACK 06 AUDIO
    FLAGS PRE
    INDEX 00 03:25:15
    INDEX 01 03:27:15
  TRACK 07 AUDIO
    FLAGS PRE
    INDEX 00 03:37:55
    INDEX 01 03:39:55
  TRACK 08 AUDIO
    FLAGS PRE
    INDEX 00 03:50:21
    INDEX 01 03:52:20
  TRACK 09 AUDIO
    FLAGS PRE
    INDEX 00 03:58:35
    INDEX 01 04:00:33
  TRACK 10 AUDIO
    FLAGS PRE
    INDEX 00 04:10:74
    INDEX 01 04:12:73
  TRACK 11 AUDIO
    FLAGS PRE
    INDEX 00 04:26:52
    INDEX 01 04:28:52
  TRACK 12 AUDIO
    FLAGS PRE
    INDEX 00 04:37:31
    INDEX 01 04:39:30
  TRACK 13 AUDIO
    FLAGS PRE
    INDEX 00 04:49:59
    INDEX 01 04:51:57
  TRACK 14 AUDIO
    FLAGS PRE
    INDEX 00 05:01:42
    INDEX 01 05:03:41
  TRACK 15 AUDIO
    FLAGS PRE
    INDEX 00 05:16:18
    INDEX 01 05:18:17
  TRACK 16 AUDIO
    FLAGS PRE
    INDEX 00 05:26:70
    INDEX 01 05:28:70
  TRACK 17 AUDIO
    FLAGS PRE
    INDEX 00 05:39:26
    INDEX 01 05:41:22
  TRACK 18 AUDIO
    FLAGS PRE
    INDEX 00 05:49:57
    INDEX 01 05:51:56
  TRACK 19 AUDIO
    FLAGS PRE
    INDEX 00 06:00:37
    INDEX 01 06:02:35
  TRACK 20 AUDIO
    FLAGS PRE
    INDEX 00 06:11:18
    INDEX 01 06:13:13
  TRACK 21 AUDIO
    FLAGS PRE
    INDEX 00 06:23:40
    INDEX 01 06:25:40
  TRACK 22 AUDIO
    FLAGS PRE
    INDEX 00 06:32:65
    INDEX 01 06:34:64
  TRACK 23 AUDIO
    FLAGS PRE
    INDEX 00 06:42:32
    INDEX 01 06:44:31
  TRACK 24 AUDIO
    FLAGS PRE
    INDEX 00 06:50:56
    INDEX 01 06:52:49
  TRACK 25 AUDIO
    FLAGS PRE
    INDEX 00 07:03:02
    INDEX 01 07:05:01
  TRACK 26 AUDIO
    FLAGS PRE
    INDEX 00 07:13:35
    INDEX 01 07:15:35
  TRACK 27 AUDIO
    FLAGS PRE
    INDEX 00 07:21:72
    INDEX 01 07:23:72
  TRACK 28 AUDIO
    FLAGS PRE
    INDEX 00 07:30:21
    INDEX 01 07:32:15
  TRACK 29 AUDIO
    FLAGS PRE
    INDEX 00 07:42:42
    INDEX 01 07:44:42
  TRACK 30 AUDIO
    FLAGS PRE
    INDEX 00 07:51:66
    INDEX 01 07:53:66
  TRACK 31 AUDIO
    FLAGS PRE
    INDEX 00 08:14:06
    INDEX 01 08:16:05
  TRACK 32 AUDIO
    FLAGS PRE
    INDEX 00 08:24:39
    INDEX 01 08:26:39
  TRACK 33 AUDIO
    FLAGS PRE
    INDEX 00 08:36:67
    INDEX 01 08:38:66
  TRACK 34 AUDIO
    FLAGS PRE
    INDEX 00 08:46:41
    INDEX 01 08:48:41
  TRACK 35 AUDIO
    FLAGS PRE
    INDEX 00 08:55:42
    INDEX 01 08:57:35
  TRACK 36 AUDIO
    FLAGS PRE
    INDEX 00 09:01:35
    INDEX 01 09:03:35
  TRACK 37 AUDIO
    FLAGS PRE
    INDEX 00 09:13:70
    INDEX 01 09:15:62
  TRACK 38 AUDIO
    FLAGS PRE
    INDEX 00 09:23:37
    INDEX 01 09:25:37
  TRACK 39 AUDIO
    FLAGS PRE
    INDEX 00 09:35:07
    INDEX 01 09:37:05
  TRACK 40 AUDIO
    FLAGS PRE
    INDEX 00 09:41:05
    INDEX 01 09:43:05
  TRACK 41 AUDIO
    FLAGS PRE
    INDEX 00 09:53:33
    INDEX 01 09:55:32
  TRACK 42 AUDIO
    FLAGS PRE
    INDEX 00 10:02:61
    INDEX 01 10:04:51
  TRACK 43 AUDIO
    FLAGS PRE
    INDEX 00 10:08:52
    INDEX 01 10:10:51
  TRACK 44 AUDIO
    FLAGS PRE
    INDEX 00 10:14:51
    INDEX 01 10:16:51
  TRACK 45 AUDIO
    FLAGS PRE
    INDEX 00 10:27:05
    INDEX 01 10:29:03
  TRACK 46 AUDIO
    FLAGS PRE
    INDEX 00 10:38:65
    INDEX 01 10:40:62
  TRACK 47 AUDIO
    FLAGS PRE
    INDEX 00 10:50:53
    INDEX 01 10:52:53
  TRACK 48 AUDIO
    FLAGS PRE
    INDEX 00 10:56:53
    INDEX 01 10:58:53
  TRACK 49 AUDIO
    FLAGS PRE
    INDEX 00 11:09:05
    INDEX 01 11:11:05
  TRACK 50 AUDIO
    FLAGS PRE
    INDEX 00 11:19:39
    INDEX 01 11:21:39
  TRACK 51 AUDIO
    FLAGS PRE
    INDEX 00 11:25:50
    INDEX 01 11:27:39
  TRACK 52 AUDIO
    FLAGS PRE
    INDEX 00 11:31:42
    INDEX 01 11:33:39
  TRACK 53 AUDIO
    FLAGS PRE
    INDEX 00 11:43:66
    INDEX 01 11:45:66
  TRACK 54 AUDIO
    FLAGS PRE
    INDEX 00 11:53:15
    INDEX 01 11:55:15
  TRACK 55 AUDIO
    FLAGS PRE
    INDEX 00 11:59:22
    INDEX 01 12:01:15
  TRACK 56 AUDIO
    FLAGS PRE
    INDEX 00 12:08:34
    INDEX 01 12:10:34
  TRACK 57 AUDIO
    FLAGS PRE
    INDEX 00 12:20:62
    INDEX 01 12:22:61
  TRACK 58 AUDIO
    FLAGS PRE
    INDEX 00 12:30:37
    INDEX 01 12:32:36
  TRACK 59 AUDIO
    FLAGS PRE
    INDEX 00 12:58:01
    INDEX 01 13:00:01
  TRACK 60 AUDIO
    FLAGS PRE
    INDEX 00 13:08:55
    INDEX 01 13:10:54
  TRACK 61 AUDIO
    FLAGS PRE
    INDEX 00 13:24:22
    INDEX 01 13:26:21
  TRACK 62 AUDIO
    FLAGS PRE
    INDEX 00 13:33:43
    INDEX 01 13:35:40
  TRACK 63 AUDIO
    FLAGS PRE
    INDEX 00 13:43:74
    INDEX 01 13:45:68
  TRACK 64 AUDIO
    FLAGS PRE
    INDEX 00 13:52:11
    INDEX 01 13:54:11
  TRACK 65 AUDIO
    FLAGS PRE
    INDEX 00 14:07:54
    INDEX 01 14:09:53
  TRACK 66 AUDIO
    FLAGS PRE
    INDEX 00 14:19:37
    INDEX 01 14:21:37
  TRACK 67 AUDIO
    FLAGS PRE
    INDEX 00 14:27:49
    INDEX 01 14:29:45
  TRACK 68 AUDIO
    FLAGS PRE
    INDEX 00 14:38:04
    INDEX 01 14:40:04
  TRACK 69 AUDIO
    FLAGS PRE
    INDEX 00 14:53:52
    INDEX 01 14:55:46
  TRACK 70 AUDIO
    FLAGS PRE
    INDEX 00 15:03:02
    INDEX 01 15:04:70
  TRACK 71 AUDIO
    FLAGS PRE
    INDEX 00 15:10:48
    INDEX 01 15:12:45
  TRACK 72 AUDIO
    FLAGS PRE
    INDEX 00 15:16:45
    INDEX 01 15:18:45
  TRACK 73 AUDIO
    FLAGS PRE
    INDEX 00 15:32:13
    INDEX 01 15:34:12
  TRACK 74 AUDIO
    FLAGS PRE
    INDEX 00 15:42:46
    INDEX 01 15:44:46
  TRACK 75 AUDIO
    FLAGS PRE
    INDEX 00 15:58:48
    INDEX 01 16:00:48
  TRACK 76 AUDIO
    FLAGS PRE
    INDEX 00 16:04:54
    INDEX 01 16:06:48
  TRACK 77 AUDIO
    FLAGS PRE
    INDEX 00 16:20:25
    INDEX 01 16:22:15
  TRACK 78 AUDIO
    FLAGS PRE
    INDEX 00 16:29:66
    INDEX 01 16:31:65
  TRACK 79 AUDIO
    FLAGS PRE
    INDEX 00 16:35:70
    INDEX 01 16:37:65
  TRACK 80 AUDIO
    FLAGS PRE
    INDEX 00 16:41:65
    INDEX 01 16:43:65
  TRACK 81 AUDIO
    FLAGS PRE
    INDEX 00 16:57:32
    INDEX 01 16:59:32
  TRACK 82 AUDIO
    FLAGS PRE
    INDEX 00 17:06:59
    INDEX 01 17:08:51
  TRACK 83 AUDIO
    FLAGS PRE
    INDEX 00 17:16:36
    INDEX 01 17:18:31
  TRACK 84 AUDIO
    FLAGS PRE
    INDEX 00 17:22:32
    INDEX 01 17:24:31
  TRACK 85 AUDIO
    FLAGS PRE
    INDEX 00 17:37:74
    INDEX 01 17:39:73
  TRACK 86 AUDIO
    FLAGS PRE
    INDEX 00 17:49:58
    INDEX 01 17:51:57
  TRACK 87 AUDIO
    FLAGS PRE
    INDEX 00 17:58:06
    INDEX 01 18:00:04
  TRACK 88 AUDIO
    FLAGS PRE
    INDEX 00 18:04:05
    INDEX 01 18:06:04
  TRACK 89 AUDIO
    FLAGS PRE
    INDEX 00 18:19:46
    INDEX 01 18:21:46
  TRACK 90 AUDIO
    FLAGS PRE
    INDEX 00 18:30:05
    INDEX 01 18:32:05
  TRACK 91 AUDIO
    FLAGS PRE
    INDEX 00 18:44:17
    INDEX 01 18:46:16
  TRACK 92 AUDIO
    FLAGS PRE
    INDEX 00 18:53:43
    INDEX 01 18:55:35
  TRACK 93 AUDIO
    FLAGS PRE
    INDEX 00 19:09:11
    INDEX 01 19:11:02
  TRACK 94 AUDIO
    FLAGS PRE
    INDEX 00 19:18:27
    INDEX 01 19:20:26
  TRACK 95 AUDIO
    FLAGS PRE
    INDEX 00 22:20:39
    INDEX 01 22:22:38
  TRACK 96 AUDIO
    FLAGS PRE
    INDEX 00 26:05:38
    INDEX 01 26:07:29
